<?xml version="1.0" encoding="utf-8"?>
<!-- Generator: Adobe Illustrator 24.1.3, SVG Export Plug-In . SVG Version: 6.00 Build 0)  -->
<svg version="1.1" xmlns="http://www.w3.org/2000/svg" xmlns:xlink="http://www.w3.org/1999/xlink" x="0px" y="0px"
	 viewBox="0 0 806 834" style="enable-background:new 0 0 806 834;" xml:space="preserve">
<style type="text/css">
	.st0{fill:#FFFFFF;}
	.st1{fill:#FEFE02;}
	.st2{fill:#0000FE;}
	.st3{fill:#0002FA;}
	.st4{fill:none;stroke:#C1D566;stroke-width:1.0194;stroke-miterlimit:10;}
	.st5{fill:none;stroke:#C1D566;stroke-width:1.0308;stroke-miterlimit:10;}
	.st6{fill:#C1D566;}
	.st7{fill:#FEFF59;}
	.st8{fill:#FFFF01;}
	.st9{fill:#09FC00;}
	.st10{fill:#0201FB;}
	.st11{fill:#807FFF;}
	.st12{fill:#0000FF;}
	.st13{fill:#FEFFF5;}
	.st14{fill:#FFFEAC;}
	.st15{fill:#5A59FF;}
</style>
<g id="Calque_1">
</g>
<g id="Calque_2">
	<path class="st0" d="M403,38.2C193.8,38.2,24.2,207.8,24.2,417S193.8,795.8,403,795.8S781.8,626.2,781.8,417S612.2,38.2,403,38.2
		L403,38.2z"/>
	<g>
		<path class="st1" d="M591.4,309.7c0,0-180.1-71.6-377.2,3.3C214.2,313,379,228.7,591.4,309.7z"/>
		<g>
			<path class="st2" d="M281.7,384.2c9-8.8,20.3-13.2,33.8-13.2c15.5,0,28.2,5.8,38.2,17.4c10,11.6,15,26.4,15,44.6
				c0,16.7-5.6,31.9-16.9,45.5c-11.3,13.6-27.2,20.4-47.8,20.4c-18.3,0-33.8-7.8-46.7-23.4c-12.9-15.6-19.3-39.7-19.3-72.1
				c0-28.2,6-51.7,18-70.7c12-19,30.1-28.5,54.1-28.5c26,0,43.8,11.9,53.5,35.8l-39,7.5c-3.2-6.2-8.7-9.3-16.4-9.3
				c-6.7,0-12.7,3.6-18.2,10.7S281.7,367.7,281.7,384.2z M285.6,434.6c0,18.6,7,27.9,20.9,27.9c6.4,0,11.5-2.6,15.3-7.7
				c3.8-5.1,5.6-12.1,5.6-20.9c0-8.8-1.8-16-5.5-21.5c-3.7-5.5-8.8-8.2-15.5-8.2c-6.7,0-11.8,3-15.5,9.1
				C287.4,419.4,285.6,426.5,285.6,434.6z"/>
			<path class="st3" d="M310.1,304c26,0,43.8,11.9,53.5,35.8l-39,7.5c-3.2-6.2-8.7-9.3-16.4-9.3c-6.7,0-12.7,3.6-18.2,10.7
				s-8.2,19-8.2,35.4c9-8.8,20.3-13.2,33.8-13.2c15.5,0,28.2,5.8,38.2,17.4c10,11.6,15,26.4,15,44.6c0,16.7-5.6,31.9-16.9,45.5
				c-11.3,13.6-27.2,20.4-47.8,20.4c-18.3,0-33.8-7.8-46.7-23.4c-12.9-15.6-19.3-39.7-19.3-72.1c0-28.2,6-51.7,18-70.7
				C268,313.4,286,304,310.1,304 M306.5,462.6c6.4,0,11.5-2.6,15.3-7.7c3.8-5.1,5.6-12.1,5.6-20.9c0-8.8-1.8-16-5.5-21.5
				c-3.7-5.5-8.8-8.2-15.5-8.2c-6.7,0-11.8,3-15.5,9.1c-3.7,6.1-5.5,13.2-5.5,21.3C285.6,453.2,292.6,462.6,306.5,462.6 M310.1,302
				c-24.7,0-43.5,9.9-55.8,29.4c-12.2,19.2-18.4,43.4-18.4,71.8c0,32.8,6.7,57.5,19.8,73.4c13.2,16,29.5,24.2,48.3,24.2
				c21.1,0,37.8-7.1,49.4-21.1c11.5-13.9,17.4-29.6,17.4-46.7c0-18.5-5.2-34-15.5-45.9c-10.3-12-23.7-18.1-39.7-18.1
				c-12.3,0-23,3.6-31.8,10.7c0.5-13.6,3.1-23.6,7.7-29.7c5.1-6.7,10.6-10,16.6-10c7,0,11.8,2.7,14.7,8.2l0.7,1.3l1.5-0.3l39-7.5
				l2.4-0.5l-0.9-2.3C355.4,314.4,336.8,302,310.1,302L310.1,302z M306.5,460.6c-18.9,0-18.9-19.5-18.9-25.9
				c0-7.7,1.7-14.5,5.2-20.3c3.3-5.5,7.8-8.2,13.8-8.2c6,0,10.5,2.4,13.8,7.3c3.4,5.1,5.1,12,5.1,20.4c0,8.4-1.8,15-5.3,19.8
				C316.8,458.3,312.3,460.6,306.5,460.6L306.5,460.6z"/>
		</g>
		<polygon class="st4" points="270.2,263.2 269.8,263.7 269.8,263.2 		"/>
		<polygon class="st5" points="270.2,263.2 269.8,263.7 269.8,263.2 		"/>
		<polygon class="st3" points="593,216.8 590.7,218.8 522.3,237.4 457.1,187.2 380.4,232.7 306.9,220.1 266.8,256.9 214.9,248.1 
			213.2,247 264.1,251.7 306,213.9 379.5,223.1 456.5,182.5 526.8,229.7 		"/>
		<polygon class="st6" points="270.2,263.2 269.8,263.7 269.8,263.2 		"/>
		<path class="st1" d="M282.9,270.5l94.1-21v19.1c-54.3,4.3-94.1,14.1-94.1,14.1V270.5z"/>
		<path class="st1" d="M472.2,228.2l33.2,19.9v25c-35.8-6.4-72.8-7.4-106-5.9v-22.7L472.2,228.2z"/>
		<path class="st1" d="M549.8,274.8v20.9c-8-2.4-16-4.5-23.9-6.4v-28.8L549.8,274.8z"/>
		<path class="st3" d="M253.5,297.6v-29.9h-5.7v31.8C249.6,298.9,251.5,298.3,253.5,297.6z"/>
		<path class="st3" d="M519.6,293.8v-49.7l-6.8-5.2v53.4c-33.1-6.7-74.5-11.8-121.3-10.8v-42.9l79.3-18.2l38.3,23.5v-7.9l-52.6-40.4
			l-71.8,42.6v43.5c-34.1,1.2-70.9,5.7-109.4,15.4v-31.7L377,242v-2.8l-67.9-11.7l-38.9,35.7l-0.5,0.4l-0.7,0.7l-39.3-6.6l20.8,13.4
			l19.2-4.4v31.9c-19.7,5.1-39.7,11.6-60.1,19.7c12.6-4.5,135.8-46.4,305.2-19.1c1.6,4,6.1,12.2,15.8,12.2c8.9,0,14.7-0.9,17.4-6.1
			c15.7,3.3,31.7,7.2,48,11.7C595.1,316.7,566.6,303.9,519.6,293.8z M521.5,244.9v6.7l17.7,10.9l38.9-32.9L521.5,244.9z"/>
		<g>
			<path class="st7" d="M485.9,438.6c4.8-9.3,10.4-18.5,16.5-27.5c-2.6-8.4-6.9-16-12.9-22.7c-10.5-11.7-23.1-17.5-37.7-17.5
				c-8.4,0-16,1.2-22.9,3.6l3.9-26.5h66.7v-39h-98.6l-17.4,100.2l37.1,3.9c4.9-6.4,11.5-9.7,19.7-9.7c6.7,0,12.1,2.9,16.3,8.8
				c4.2,5.9,6.3,13.2,6.3,22c0,10.3-2.5,17.7-7.4,22.4c-4.9,4.7-10.2,7-15.8,7c-4.7,0-9-1.7-12.9-5.2c-3.9-3.5-6.4-8.1-7.7-13.8
				l-40,6.4c8.4,31.7,28.8,47.6,61.2,47.6c9.2,0,17.6-1.4,25.2-4.3C469.6,475.6,476.5,456.9,485.9,438.6z"/>
			<path class="st3" d="M499.5,309v39h-66.7l-3.9,26.5c6.9-2.4,14.5-3.6,22.9-3.6c14.6,0,27.2,5.9,37.7,17.5
				c6,6.7,10.3,14.3,12.9,22.7c-6.1,9-11.7,18.2-16.5,27.5c-9.5,18.3-16.4,37-20.5,55.8c-7.6,2.8-16,4.3-25.2,4.3
				c-32.4,0-52.8-15.9-61.2-47.6l40-6.4c1.3,5.7,3.9,10.3,7.7,13.8c3.9,3.5,8.2,5.2,12.9,5.2c5.6,0,10.8-2.3,15.8-7
				c4.9-4.7,7.4-12.1,7.4-22.4c0-8.8-2.1-16.2-6.3-22c-4.2-5.8-9.6-8.8-16.3-8.8c-8.2,0-14.7,3.2-19.7,9.7l-37.1-3.9L400.9,309
				H499.5 M501.5,307h-2h-98.6h-1.7l-0.3,1.7l-17.4,100.2l-0.4,2.1l2.1,0.2l37.1,3.9l1.1,0.1l0.7-0.9c4.6-6,10.5-8.9,18.1-8.9
				c6,0,10.8,2.6,14.6,7.9c3.9,5.5,5.9,12.5,5.9,20.9c0,9.6-2.3,16.7-6.8,20.9c-4.6,4.3-9.3,6.4-14.4,6.4c-4.3,0-8-1.5-11.6-4.7
				c-3.5-3.2-5.9-7.4-7.1-12.7l-0.4-1.8l-1.9,0.3l-40,6.4l-2.2,0.4l0.6,2.1c8.6,32.6,29.8,49.1,63.2,49.1c9.4,0,18.1-1.5,25.9-4.4
				l1-0.4l0.2-1.1c4.1-18.6,11-37.3,20.3-55.3c4.7-9.1,10.2-18.3,16.4-27.3l0.5-0.8l-0.3-0.9c-2.7-8.7-7.1-16.6-13.3-23.4
				c-10.9-12.1-24.1-18.2-39.2-18.2c-7.3,0-14.2,0.9-20.4,2.7l3.2-21.6h65h2v-2v-39V307L501.5,307z"/>
		</g>
		<g>
			<path class="st8" d="M567.3,355c0,0-77.9,58.8-93.8,150.3c-0.5,2.7,21.5-32.4,33.9-52.8S559.7,371.6,567.3,355z"/>
			<path class="st9" d="M593.8,374.3c0,0-1.1-0.8-7.4,4.5s-34.7,34.3-54.8,56.1c-20.1,21.8-46.6,53.5-43.9,63.7c0,0,3.7,3.6,12.6-5
				c8.9-8.6,66.7-72.7,91.1-105C596,382.5,598.3,373.5,593.8,374.3z"/>
			<path class="st10" d="M600.5,426.2c-0.5-1.7-5.7,2.5-7.4,3.6s-31.7,19.7-40,25.7c-8.3,5.9-61.1,40.1-58.1,52.2s24.4-6.5,33.9-14
				C538.4,486.2,602.9,435.2,600.5,426.2z"/>
		</g>
		<g>
			<g>
				<path class="st8" d="M189,578.9l-7.2,19.2c0,0,95.8-48.9,214.7,25.8C396.5,623.9,307.2,533.3,189,578.9z"/>
				<path class="st11" d="M396.5,623.9c0,0-11.9-120.2-176.4-128.1l-9.5,25.4C240.8,518.9,360.3,517.1,396.5,623.9z"/>
				<path class="st12" d="M396.5,623.9c-36.2-106.7-155.7-105-185.9-102.7l-10,26.8C330.3,522.1,396.5,623.9,396.5,623.9z"/>
				<path class="st13" d="M396.5,623.9c0,0-66.2-101.8-195.9-76l-5.1,13.6C219.3,553.7,308.8,532.7,396.5,623.9z"/>
				<path class="st14" d="M396.5,623.9c-87.8-91.2-177.2-70.2-201-62.4l-6.5,17.4C307.2,533.3,396.5,623.9,396.5,623.9z"/>
			</g>
			<g>
				<path class="st8" d="M610.7,574.4l7.4,21.2c0,0-98.9-53.8-221.6,28.4C396.5,623.9,488.8,524.1,610.7,574.4z"/>
				<path class="st11" d="M396.5,623.9c0,0,12.3-132.3,182.1-141l9.8,28C557.2,508.4,433.9,506.4,396.5,623.9z"/>
				<path class="st12" d="M396.5,623.9c37.4-117.5,160.7-115.5,191.9-113.1l10.3,29.4C464.9,511.9,396.5,623.9,396.5,623.9z"/>
				<path class="st13" d="M396.5,623.9c0,0,68.4-112,202.2-83.6l5.3,15C579.5,546.6,487.1,523.6,396.5,623.9z"/>
				<path class="st14" d="M396.5,623.9c90.6-100.3,183-77.3,207.5-68.6l6.7,19.1C488.8,524.1,396.5,623.9,396.5,623.9z"/>
			</g>
		</g>
		<path class="st15" d="M353.7,388.3c-10-11.6-22.7-17.4-38.2-17.4c-13.5,0-24.8,4.4-33.8,13.2c0-16.5,2.7-28.3,8.2-35.4
			s11.5-10.7,18.2-10.7c7.7,0,13.2,3.1,16.4,9.3l39-7.5c-9.7-23.9-27.5-35.8-53.5-35.8c-24.1,0-42.1,9.5-54.1,28.5
			c-12,19-18,42.5-18,70.7c0,6.7,0.3,12.9,0.8,18.9c16.2-2.2,35.2-5.4,53.1-9.9c3.6-5.3,8.5-7.9,14.7-7.9c2.7,0,5.2,0.5,7.4,1.4
			c3.8-1.3,7.5-2.7,10.9-4.2c10.4-4.5,20.8-8.1,30.5-11C354.8,389.6,354.3,388.9,353.7,388.3z"/>
		<path class="st3" d="M403,48.2c49.8,0,98.1,9.8,143.6,29c43.9,18.6,83.4,45.2,117.2,79c33.9,33.9,60.5,73.3,79,117.2
			c19.2,45.5,29,93.8,29,143.6s-9.8,98.1-29,143.6c-18.6,43.9-45.2,83.4-79,117.2c-33.9,33.9-73.3,60.5-117.2,79
			c-45.5,19.2-93.8,29-143.6,29s-98.1-9.8-143.6-29c-43.9-18.6-83.4-45.2-117.2-79c-33.9-33.9-60.5-73.3-79-117.2
			c-19.2-45.5-29-93.8-29-143.6s9.8-98.1,29-143.6c18.6-43.9,45.2-83.4,79-117.2c33.9-33.9,73.3-60.5,117.2-79
			C304.9,57.9,353.2,48.2,403,48.2 M403,38.2C193.8,38.2,24.2,207.8,24.2,417S193.8,795.8,403,795.8S781.8,626.2,781.8,417
			S612.2,38.2,403,38.2L403,38.2z"/>
		<g>
			<g>
				<path class="st3" d="M77.9,279.3l3.1-6.5l17.5,8.3c2.8,1.3,4.6,2.1,5.5,2.3c1.5,0.3,2.8,0.2,4.1-0.5c1.3-0.7,2.4-1.9,3.2-3.7
					c0.9-1.9,1.2-3.4,0.8-4.7s-1-2.3-2-3c-1-0.7-2.8-1.7-5.4-2.9L87,260l3.1-6.5l17,8c3.9,1.8,6.5,3.3,8,4.4
					c1.4,1.1,2.5,2.4,3.1,3.9c0.7,1.5,0.9,3.2,0.8,5.1c-0.1,1.9-0.8,4.1-2,6.7c-1.5,3.1-2.9,5.3-4.4,6.5c-1.5,1.3-3,2.1-4.6,2.5
					s-3.1,0.4-4.5,0.1c-2.1-0.5-4.9-1.5-8.5-3.2L77.9,279.3z"/>
				<path class="st3" d="M125.7,262.9L95.3,244l3.7-6l28,0.1l-20.3-12.6l3.5-5.7l30.4,18.8l-3.8,6.2l-27.4,0l19.9,12.3L125.7,262.9z
					"/>
				<path class="st3" d="M144.7,233.3l-28.9-21.1l4.3-5.8l28.9,21.1L144.7,233.3z"/>
				<path class="st3" d="M158.5,215.4L122.9,202l5.1-6l26.1,10.2l-14.6-23.8l5-5.9l19,32.9L158.5,215.4z"/>
				<path class="st3" d="M173.8,197.8L149,172l19.1-18.4l4.2,4.4l-13.9,13.4l5.5,5.7l12.9-12.5l4.2,4.3l-12.9,12.5l6.8,7l14.4-13.9
					l4.2,4.3L173.8,197.8z"/>
				<path class="st3" d="M197.4,175.4l-22-28.3l12-9.3c3-2.3,5.4-3.8,7.2-4.4c1.8-0.6,3.6-0.5,5.4,0.2c1.8,0.7,3.4,1.8,4.7,3.5
					c1.6,2.1,2.4,4.4,2.2,6.7c-0.2,2.3-1.4,4.7-3.6,7c1.8-0.2,3.4-0.2,4.9,0c1.5,0.2,3.7,0.9,6.8,2.1l7.7,2.8L216,161l-8.9-2.9
					c-3.2-1.1-5.3-1.7-6.2-1.8c-1-0.2-1.9-0.1-2.6,0.2c-0.8,0.3-1.8,0.9-3.1,1.9l-1.2,0.9l9.2,11.8L197.4,175.4z M190.5,154.7
					l4.2-3.3c2.7-2.1,4.4-3.6,4.9-4.3c0.5-0.8,0.7-1.6,0.7-2.4c-0.1-0.9-0.4-1.7-1.1-2.6c-0.7-1-1.6-1.5-2.6-1.7c-1-0.2-2,0-3,0.6
					c-0.5,0.3-1.9,1.3-4.2,3.1l-4.5,3.5L190.5,154.7z"/>
				<path class="st3" d="M217.8,145.2l5.6-4.3c1.6,1.8,3.2,2.8,4.9,3.1s3.5-0.2,5.3-1.3c2-1.2,3.2-2.6,3.7-4
					c0.5-1.5,0.4-2.7-0.3-3.9c-0.4-0.7-1-1.2-1.8-1.4c-0.7-0.2-1.7-0.2-3,0c-0.9,0.2-2.8,0.8-5.7,1.7c-3.8,1.2-6.7,1.6-8.8,1.3
					c-2.9-0.5-5.1-2-6.6-4.4c-1-1.6-1.4-3.3-1.4-5.2c0-1.9,0.7-3.7,1.9-5.4c1.2-1.7,3-3.3,5.3-4.8c3.8-2.4,7.2-3.3,10.2-2.8
					c3,0.5,5.4,2.1,7.2,4.8l-6,4.1c-1.2-1.4-2.5-2.2-3.8-2.3c-1.3-0.1-2.8,0.3-4.5,1.4c-1.8,1.1-3,2.3-3.5,3.7
					c-0.4,0.9-0.3,1.7,0.2,2.5c0.4,0.7,1.1,1.1,2.1,1.3c1.2,0.2,3.5-0.3,6.9-1.5s6.1-1.8,8-1.9s3.7,0.2,5.3,1c1.6,0.8,3,2.2,4.2,4.1
					c1.1,1.7,1.6,3.7,1.6,5.8c0,2.1-0.7,4.1-2,5.9c-1.3,1.8-3.3,3.6-5.9,5.2c-3.8,2.4-7.4,3.3-10.5,2.8S220.3,148.4,217.8,145.2z"/>
				<path class="st3" d="M253.4,137.6l-16.6-31.7l6.4-3.3l16.6,31.7L253.4,137.6z"/>
				<path class="st3" d="M272.8,128l-11.9-27.2l-9.7,4.3l-2.4-5.5l26.1-11.4l2.4,5.5l-9.7,4.2l11.9,27.2L272.8,128z"/>
				<path class="st3" d="M292.7,119.6l-11-34l25.2-8.2l1.9,5.8l-18.4,6l2.5,7.5l17.1-5.5l1.9,5.7l-17.1,5.5l3,9.3l19-6.2l1.9,5.7
					L292.7,119.6z M289.7,80.7l1-8l7.3-2.4l-4.1,9L289.7,80.7z"/>
				<path class="st3" d="M331,71.4l13-2.2c2.9-0.5,5.2-0.6,6.8-0.4c2.2,0.3,4.1,1.1,5.9,2.4c1.7,1.3,3.2,3,4.3,5.2
					c1.1,2.1,2,4.8,2.5,8.2c0.5,2.9,0.5,5.5,0.2,7.7c-0.5,2.7-1.4,5-2.8,6.9c-1,1.4-2.6,2.6-4.5,3.6c-1.5,0.8-3.6,1.4-6.2,1.8
					l-13.4,2.2L331,71.4z M339.1,76.2l3.9,23.4l5.3-0.9c2-0.3,3.4-0.7,4.3-1c1.1-0.5,2-1.1,2.6-1.9c0.6-0.8,1.1-2.1,1.3-3.7
					s0.1-3.9-0.3-6.6c-0.5-2.7-1-4.8-1.8-6.2c-0.7-1.4-1.6-2.4-2.6-3.1c-1-0.7-2.2-1-3.6-1.1c-1-0.1-3,0.1-5.9,0.6L339.1,76.2z"/>
				<path class="st3" d="M368.6,66.1l6.8-0.6l0.4,4.9c0.2,2,0.1,3.6-0.1,4.7c-0.2,1.2-0.8,2.3-1.7,3.2c-0.9,1-2,1.8-3.4,2.5
					l-1.6-2.7c1.3-0.6,2.3-1.3,2.8-2.1c0.5-0.8,0.7-2,0.6-3.3l-3.3,0.3L368.6,66.1z"/>
				<path class="st3" d="M417.4,99.8l-7.9,0.1l-3.3-8.1L392,92.1l-2.8,8.2l-7.7,0.1l13.4-36l7.6-0.1L417.4,99.8z M403.9,85.9
					l-5.1-13.2l-4.6,13.4L403.9,85.9z"/>
				<path class="st3" d="M420.3,100.3l3.5-35.6l7,0.7l12.2,25.2l2.4-23.8l6.7,0.7l-3.5,35.6l-7.2-0.7l-12.1-24.6l-2.3,23.2
					L420.3,100.3z"/>
				<path class="st3" d="M463.1,105.8l5.9-29.1l-10.4-2.1l1.2-5.9l27.9,5.7l-1.2,5.9l-10.4-2.1l-5.9,29.1L463.1,105.8z"/>
				<path class="st3" d="M511.7,118.7l-7.5-2.3l-0.6-8.7l-13.7-4.1l-5.2,6.9l-7.3-2.2L501,78.1l7.3,2.2L511.7,118.7z M503.1,101.3
					l-0.9-14.1l-8.5,11.3L503.1,101.3z"/>
				<path class="st3" d="M514.4,119.9L528.5,87l6.5,2.8l4.1,27.7l9.4-22l6.2,2.6l-14.1,32.9l-6.7-2.9l-4.1-27.1l-9.2,21.5
					L514.4,119.9z"/>
				<path class="st3" d="M574.6,150l-6.8-3.9l1.3-8.6l-12.4-7.1l-6.6,5.6l-6.7-3.8l29.8-24.3l6.6,3.8L574.6,150z M570,131.1l2.3-14
					l-10.8,9.2L570,131.1z"/>
				<path class="st3" d="M577,151.8l21-29l5.7,4.1l-2.2,28l14-19.4l5.4,3.9l-21,29l-5.9-4.3l2-27.4l-13.7,18.9L577,151.8z"/>
				<path class="st3" d="M629.2,194.3l-5.8-5.3l3.2-8.1l-10.6-9.6l-7.7,4l-5.7-5.2l34.4-17.1l5.7,5.1L629.2,194.3z M628.8,174.9
					l5.3-13.1l-12.5,6.6L628.8,174.9z"/>
				<path class="st3" d="M631.1,196.6l26.8-23.7l10.1,11.4c2.5,2.9,4.1,5.2,4.8,6.9c0.7,1.7,0.7,3.5,0.2,5.4
					c-0.5,1.9-1.6,3.5-3.2,4.9c-2,1.8-4.2,2.7-6.6,2.6s-4.7-1.1-7.2-3.1c0.4,1.8,0.5,3.4,0.3,4.9c-0.1,1.5-0.7,3.8-1.6,6.9l-2.3,7.9
					l-5.7-6.5l2.4-9.1c0.9-3.2,1.3-5.3,1.4-6.3c0.1-1,0-1.9-0.3-2.6c-0.3-0.8-1-1.7-2.1-3l-1-1.1l-11.2,9.9L631.1,196.6z
					 M651.4,188.3l3.5,4c2.3,2.6,3.8,4.1,4.6,4.6c0.8,0.5,1.6,0.6,2.5,0.5c0.9-0.1,1.7-0.5,2.5-1.2c0.9-0.8,1.4-1.7,1.5-2.7
					c0.1-1-0.1-2-0.8-3c-0.3-0.5-1.5-1.8-3.4-4l-3.7-4.2L651.4,188.3z"/>
				<path class="st3" d="M653.9,223.4l28.6-21.6l4.4,5.8l-28.6,21.6L653.9,223.4z"/>
				<path class="st3" d="M667.1,241.7l23.1-30.2l4.3,6.6l-17.3,22l27-7l4.2,6.4l-37,8.7L667.1,241.7z"/>
				<path class="st3" d="M694.7,252.2c3.3-1.6,6.2-2.5,8.9-2.6c2-0.1,4,0.2,5.9,0.8c1.9,0.6,3.6,1.5,5,2.7c1.8,1.6,3.4,3.7,4.7,6.3
					c2.4,4.7,2.8,9.2,1.3,13.5c-1.5,4.3-4.9,7.7-10.1,10.3c-5.2,2.6-9.9,3.2-14.2,1.8c-4.3-1.4-7.7-4.4-10-9.1
					c-2.4-4.8-2.8-9.3-1.3-13.5C686.3,258.1,689.6,254.7,694.7,252.2z M698.3,258.7c-3.6,1.8-6,4-7,6.6c-1,2.6-0.9,5.2,0.4,7.8
					c1.3,2.6,3.3,4.2,6,5c2.7,0.7,5.9,0.2,9.6-1.7c3.7-1.8,6-4,7-6.5c1-2.5,0.8-5.1-0.5-7.8c-1.3-2.7-3.3-4.4-6-5.1
					C705.1,256.3,702,256.9,698.3,258.7z"/>
			</g>
		</g>
		<path class="st3" d="M708.3,417c-0.1,40-8,79.9-23.4,116.8c-15.3,36.9-38,70.7-66.3,98.8c-28.3,28.2-62.1,50.7-99,65.9
			c-36.9,15.2-76.8,23-116.6,22.9c-39.9,0-79.7-7.9-116.5-23.2c-36.8-15.3-70.5-37.9-98.7-66.1c-28.2-28.2-50.7-61.9-65.9-98.7
			c-15.3-36.8-23.1-76.6-23.1-116.4c0-39.8,7.8-79.6,23-116.5c15.2-36.8,37.8-70.6,65.9-98.8c28.2-28.2,61.9-50.8,98.7-66.1
			c36.8-15.3,76.7-23.2,116.5-23.3c39.9-0.1,79.8,7.7,116.7,22.9c36.9,15.2,70.7,37.8,99,66c28.3,28.2,51,62,66.3,98.9
			C700.4,337.1,708.2,377,708.3,417z M703.9,417c-0.1-19.7-2.1-39.4-6-58.7c-3.9-19.3-9.9-38.1-17.6-56.2
			C664.9,266,642.1,233.2,614,206c-14-13.6-29.4-25.8-45.7-36.4c-16.3-10.6-33.7-19.5-51.7-26.8c-18-7.3-36.7-12.7-55.8-16.4
			c-19-3.7-38.4-5.6-57.8-5.5c-19.4,0-38.8,1.8-57.8,5.5c-19,3.7-37.8,9.1-55.8,16.4c-18,7.3-35.4,16.2-51.8,26.8
			c-16.4,10.6-31.7,22.8-45.7,36.4c-28,27.2-50.9,60.1-66.4,96.2c-7.7,18.1-13.7,36.9-17.6,56.2c-3.9,19.3-5.9,39-6,58.7
			c0.1,19.7,2,39.4,5.9,58.7c3.9,19.3,9.8,38.2,17.4,56.3c15.4,36.2,38.1,69.2,66.1,96.6c14,13.7,29.4,26,45.8,36.6
			c16.4,10.7,33.8,19.7,51.9,27c18.1,7.3,36.9,12.8,56,16.5c19.1,3.7,38.6,5.6,58.1,5.5c19.5,0,38.9-1.8,58.1-5.6
			c19.1-3.7,37.9-9.2,55.9-16.6c18.1-7.3,35.5-16.3,51.8-27c16.4-10.7,31.7-23,45.7-36.7c28-27.4,50.7-60.4,66.1-96.6
			c7.6-18.1,13.5-37,17.4-56.3C701.9,456.4,703.8,436.7,703.9,417z"/>
		<g>
			<g>
				<path class="st3" d="M87.8,526.8c4-0.4,9.3-0.2,11.8,0.2l1.2,2.3c-2.9,0-7.8,0.5-11,1.2L87.8,526.8z M90.2,533.2
					c4-0.4,9.3-0.2,11.8,0.2l1.2,2.3c-2.9,0-7.8,0.5-11,1.2L90.2,533.2z"/>
				<path class="st3" d="M107.8,548.2l7.2,15.1l-3,1.4l-5.4-11.5l-9.3,4.4l5,10.6l-3,1.4l-5-10.6l-12.7,6l-1.7-3.6L107.8,548.2z"/>
				<path class="st3" d="M89.4,581.2l19.7-10.5l1.9,3.6l-19.7,10.5L89.4,581.2z M116.7,571.8c-1.2,0.7-2.6,0.3-3.4-1.1
					c-0.7-1.3-0.2-2.7,1-3.3c1.3-0.7,2.7-0.3,3.4,1C118.5,569.7,118,571.1,116.7,571.8z"/>
				<path class="st3" d="M108.2,583.6c2.3-1.3,4.2-2.5,5.9-3.7l1.8,3.1l-3.7,2.3l0.1,0.2c3.1-0.6,6,0.5,7.3,2.9
					c0.2,0.4,0.4,0.7,0.5,1.1l-3.3,1.9c-0.1-0.4-0.3-0.8-0.6-1.3c-1.4-2.5-4.3-3.1-7.2-2.1c-0.5,0.2-1.1,0.4-1.7,0.8l-10.3,6l-2-3.5
					L108.2,583.6z"/>
				<path class="st3" d="M109.8,615.3l2.2-1.8l-0.1-0.1c-2.1-0.1-4.8-1.2-6.5-3.9c-2.5-3.8-1.1-7.4,1.6-9.2c4.5-3,9.6-0.6,14.3,6.6
					l0.4-0.3c1.5-1,4-3.3,1.5-7.1c-1.1-1.7-2.9-3.2-4.6-3.9l1.7-2.2c2,0.9,4.1,2.7,5.7,5c3.7,5.7,0.8,9.6-2.9,12.1l-7,4.6
					c-1.6,1.1-3.1,2.2-4.3,3.2L109.8,615.3z M119,608.5c-2.4-3.7-5.8-7.5-9.4-5.1c-2.2,1.4-2.3,3.6-1.1,5.3c1.6,2.4,4.1,2.9,6.1,2.4
					c0.4-0.1,0.9-0.3,1.2-0.5L119,608.5z"/>
				<path class="st3" d="M116.1,624.1l18-13.1l2.4,3.3l-18,13.1L116.1,624.1z M141.7,610.9c-1.1,0.9-2.6,0.7-3.5-0.6
					c-0.8-1.2-0.5-2.6,0.6-3.4c1.2-0.8,2.7-0.6,3.5,0.5C143.2,608.6,142.9,610.1,141.7,610.9z"/>
				<path class="st3" d="M125.9,630.4c0.1,1.4,0.8,3.6,2.1,5.2c1.8,2.3,3.9,2.5,5.3,1.3c1.5-1.2,1.6-2.8,0.6-5.8
					c-1.4-4-0.8-6.9,1.2-8.5c2.8-2.2,6.9-1.8,9.9,1.9c1.4,1.8,2.1,3.7,2.3,5.1l-2.9,1c-0.1-1-0.5-2.7-1.8-4.4c-1.5-1.9-3.4-2-4.7-1
					c-1.4,1.2-1.2,2.7-0.3,5.7c1.3,3.9,1,6.7-1.6,8.8c-3.1,2.4-7.1,1.8-10.4-2.3c-1.5-1.9-2.5-4-2.7-5.8L125.9,630.4z"/>
				<path class="st3" d="M143.5,657.6l1.9-2.1l-0.1-0.1c-2.1,0.3-4.9-0.5-7-2.8c-3-3.3-2.2-7.2,0.2-9.3c4-3.6,9.4-2,15.1,4.4
					l0.3-0.3c1.4-1.2,3.5-3.8,0.4-7.2c-1.4-1.5-3.3-2.7-5.1-3.2l1.4-2.5c2.1,0.6,4.5,2,6.4,4.1c4.6,5,2.2,9.4-1.1,12.4l-6.2,5.6
					c-1.4,1.3-2.8,2.6-3.7,3.9L143.5,657.6z M151.5,649.6c-2.9-3.3-6.8-6.5-10-3.6c-1.9,1.8-1.7,3.9-0.3,5.4
					c1.9,2.1,4.5,2.3,6.4,1.5c0.4-0.2,0.8-0.4,1.1-0.7L151.5,649.6z"/>
				<path class="st3" d="M162.5,654.1c1.6-1.7,2.9-3.1,4-4.5l2.6,2.5l-2.4,2.8l0.1,0.1c2.3-0.8,5.6-0.5,8.2,2.1
					c2.2,2.1,4.4,6.8-0.9,12.3l-9.2,9.6l-2.9-2.8l8.9-9.3c2.5-2.6,3.6-5.7,0.8-8.3c-1.9-1.8-4.7-1.9-6.8-0.8c-0.5,0.2-1,0.7-1.5,1.2
					l-9.3,9.7l-2.9-2.8L162.5,654.1z"/>
				<path class="st3" d="M186.9,679.5l-1.9,2.3l-8.6-7.4l1.9-2.3L186.9,679.5z"/>
				<path class="st3" d="M192.9,686.6L192.9,686.6c1-0.2,2.2-0.5,3.2-0.8l9.9-2.1l3.9,3l-12.4,2l-0.2,16.4l-3.9-3l0.4-13.1l-3,0.6
					l-5.1,6.7l-3.2-2.4l19.8-25.9l3.2,2.4L192.9,686.6z"/>
				<path class="st3" d="M201.1,707.7l12.6-18.3l3.3,2.3L204.5,710L201.1,707.7z M221,686.7c-0.7,1.2-2.2,1.5-3.5,0.6
					c-1.2-0.8-1.4-2.3-0.6-3.4c0.8-1.2,2.3-1.5,3.5-0.7C221.6,684.1,221.8,685.5,221,686.7z"/>
				<path class="st3" d="M219.3,700.5c1.2-2,2.1-3.6,3-5.2l3.1,1.9l-1.7,3.3l0.1,0c2-1.2,5.3-1.7,8.5,0.3c2.6,1.6,5.8,5.7,1.8,12.2
					l-6.9,11.3l-3.5-2.1l6.7-11c1.9-3.1,2.3-6.3-1-8.3c-2.3-1.4-5-0.9-6.8,0.7c-0.4,0.3-0.9,0.9-1.2,1.5l-7,11.4l-3.5-2.1
					L219.3,700.5z"/>
				<path class="st3" d="M245,733.8l1-2.6l-0.1-0.1c-1.9,1-4.7,1.3-7.6-0.2c-4-2.1-4.6-5.9-3.1-8.8c2.5-4.8,8.1-5.2,15.7-1.2
					l0.2-0.4c0.8-1.6,1.9-4.8-2.1-6.9c-1.8-0.9-4.1-1.4-5.9-1.2l0.4-2.8c2.2-0.2,4.9,0.3,7.4,1.6c6,3.1,5.4,8,3.3,12l-3.8,7.4
					c-0.9,1.7-1.7,3.4-2.1,4.9L245,733.8z M249.7,723.4c-3.9-2.1-8.7-3.7-10.7,0.1c-1.2,2.3-0.2,4.2,1.6,5.2
					c2.6,1.3,5.1,0.5,6.5-0.8c0.3-0.3,0.6-0.7,0.8-1L249.7,723.4z"/>
				<path class="st3" d="M276,747.4l0.7-2.7l-0.1-0.1c-1.8,1.2-4.6,1.7-7.6,0.5c-4.2-1.7-5.1-5.5-3.9-8.5c2-5,7.5-6,15.5-2.7
					l0.2-0.4c0.7-1.7,1.4-5-2.8-6.7c-1.9-0.8-4.2-1-6-0.6l0.1-2.8c2.2-0.4,4.9-0.2,7.5,0.9c6.3,2.5,6.1,7.5,4.5,11.6l-3.1,7.7
					c-0.7,1.8-1.3,3.6-1.6,5.1L276,747.4z M279.6,736.6c-4.1-1.7-9-2.9-10.6,1.2c-1,2.4,0.2,4.2,2.1,5c2.7,1.1,5.1,0.1,6.4-1.5
					c0.3-0.3,0.5-0.7,0.7-1.1L279.6,736.6z"/>
				<path class="st3" d="M309.1,746.7c-2.5,7.8-9,9.5-14.2,7.9c-5.7-1.8-8.8-7.5-6.7-14.2c2.3-7.1,8.2-9.8,14.1-7.9
					C308.5,734.5,311.2,740.2,309.1,746.7z M292.2,741.5c-1.5,4.6,0.1,9,3.8,10.2c3.7,1.2,7.5-1.4,9.1-6.2c1.1-3.6,0.8-8.7-3.8-10.2
					C296.8,733.9,293.5,737.5,292.2,741.5z"/>
				<path class="st3" d="M334.1,764.2l0.3-2.8l-0.1,0c-1.6,1.5-4.2,2.5-7.3,1.8c-4.4-0.9-6-4.5-5.3-7.7c1.1-5.3,6.4-7.2,14.8-5.3
					l0.1-0.4c0.4-1.8,0.6-5.1-3.9-6.1c-2-0.4-4.3-0.2-6,0.4l-0.3-2.8c2-0.8,4.8-1,7.6-0.4c6.7,1.4,7.3,6.3,6.4,10.7l-1.7,8.1
					c-0.4,1.9-0.7,3.8-0.7,5.3L334.1,764.2z M335.9,752.9c-4.3-1-9.4-1.3-10.3,3c-0.5,2.6,0.9,4.1,2.9,4.6c2.8,0.6,5-0.8,6-2.5
					c0.2-0.4,0.4-0.8,0.5-1.2L335.9,752.9z"/>
				<path class="st3" d="M347.4,750.2c0.3-2.3,0.5-4.2,0.6-6l3.6,0.5l-0.3,3.7l0.1,0c1.4-1.9,4.2-3.6,7.9-3.1
					c3.1,0.4,7.5,2.9,6.5,10.5l-1.8,13.2l-4-0.6l1.7-12.7c0.5-3.6-0.4-6.7-4.2-7.2c-2.6-0.4-5,1.2-5.9,3.4c-0.3,0.5-0.4,1.1-0.5,1.8
					l-1.8,13.3l-4-0.5L347.4,750.2z"/>
				<path class="st3" d="M384.2,770.4l-0.1-2.8l-0.1,0c-1.4,1.7-3.8,3.1-7,2.9c-4.5-0.3-6.6-3.6-6.4-6.8c0.4-5.4,5.3-8,13.9-7.4
					l0-0.5c0.1-1.8-0.2-5.2-4.7-5.5c-2.1-0.1-4.3,0.4-5.9,1.3l-0.7-2.7c1.9-1.1,4.6-1.7,7.4-1.5c6.8,0.4,8.1,5.2,7.9,9.6l-0.5,8.3
					c-0.1,1.9-0.2,3.8,0,5.3L384.2,770.4z M384.3,759c-4.4-0.4-9.5,0.1-9.7,4.4c-0.2,2.6,1.5,4,3.6,4.1c2.9,0.2,4.8-1.5,5.6-3.4
					c0.2-0.4,0.3-0.9,0.3-1.3L384.3,759z"/>
				<path class="st3" d="M400.1,742.2l-0.1,6.4l5.8,0.1l-0.1,3.1l-5.8-0.1l-0.2,12c0,2.8,0.7,4.3,3,4.4c1.1,0,1.8-0.1,2.3-0.2l0.1,3
					c-0.8,0.3-2,0.5-3.6,0.5c-1.9,0-3.4-0.7-4.3-1.8c-1.1-1.2-1.5-3.2-1.5-5.8l0.2-12.1l-3.4-0.1l0.1-3.1l3.4,0.1l0.1-5.3
					L400.1,742.2z"/>
				<path class="st3" d="M414.6,742.1c0.1,1.4-0.9,2.5-2.5,2.6c-1.4,0-2.5-1-2.5-2.4c0-1.4,1-2.6,2.5-2.6
					C413.6,739.6,414.6,740.7,414.6,742.1z M410.9,770.8l-0.6-22.3l4-0.1l0.6,22.3L410.9,770.8z"/>
				<path class="st3" d="M421.4,754.3c-0.2-2.3-0.4-4.2-0.7-6l3.6-0.3l0.5,3.6l0.1,0c0.9-2.2,3.3-4.5,7-4.8c3.1-0.2,8,1.2,8.6,8.8
					l1.1,13.3l-4,0.3l-1-12.8c-0.3-3.6-1.9-6.4-5.7-6.1c-2.7,0.2-4.6,2.3-5.1,4.6c-0.1,0.5-0.2,1.2-0.1,1.9l1.1,13.3l-4,0.3
					L421.4,754.3z"/>
				<path class="st3" d="M448.5,736.2c-0.6,4-1.9,9.1-2.9,11.4l-2.5,0.7c0.7-2.8,1.2-7.7,1.3-11.1L448.5,736.2z"/>
				<path class="st3" d="M453.3,751c-0.4-2.3-0.8-4.1-1.2-5.9l3.5-0.6l0.9,3.6l0.1,0c0.7-2.3,2.9-4.8,6.5-5.4c3-0.5,8.1,0.4,9.4,8
					l2.3,13.1l-4,0.7l-2.2-12.6c-0.6-3.5-2.5-6.2-6.2-5.6c-2.6,0.5-4.3,2.7-4.6,5c-0.1,0.5-0.1,1.2,0.1,1.9l2.3,13.2l-4,0.7
					L453.3,751z"/>
				<path class="st3" d="M478,740.1l7.9,11.6c0.8,1.3,1.8,2.9,2.5,4.1l0.1,0c0.1-1.4,0.1-3.2,0.3-4.9l1.1-13.7l4.1-1l-2,16.9
					c-1,8.1-1.9,12.4-4,15.4c-1.5,2.2-3.2,3.3-4.2,3.8l-1.8-3.1c0.9-0.6,2-1.5,3-2.8c0.9-1.1,1.8-3,2.2-5.2c0.1-0.4,0.1-0.8,0.1-1
					c-0.1-0.2-0.2-0.5-0.5-1l-13-17.9L478,740.1z"/>
				<path class="st3" d="M514.2,753.1l-6.2-18.2l-3,1l-1-2.9l3-1l-0.3-1c-1-3-1.3-5.9-0.1-8.2c1-1.9,2.7-3.1,4.5-3.7
					c1.4-0.5,2.6-0.6,3.5-0.5l0.5,3.1c-0.7-0.1-1.5,0-2.6,0.3c-3.3,1.1-3.1,4.3-2,7.5l0.4,1.1l5.1-1.7l1,2.9l-5.1,1.7l6.2,18.2
					L514.2,753.1z"/>
				<path class="st3" d="M538.9,743.9l-1.3-2.5l-0.1,0.1c-0.5,2.1-2.1,4.4-5.1,5.6c-4.2,1.7-7.5-0.4-8.7-3.4c-2-5,1.3-9.5,9.3-12.7
					l-0.2-0.4c-0.7-1.7-2.4-4.6-6.6-2.9c-1.9,0.8-3.7,2.2-4.8,3.7l-1.8-2.1c1.3-1.8,3.4-3.5,6.1-4.6c6.3-2.5,9.6,1.2,11.2,5.3
					l3.1,7.7c0.7,1.8,1.5,3.5,2.3,4.8L538.9,743.9z M534.1,733.5c-4.1,1.6-8.5,4.2-6.9,8.2c1,2.4,3.1,2.9,5,2.2
					c2.7-1.1,3.7-3.5,3.6-5.5c0-0.4-0.1-0.9-0.3-1.3L534.1,733.5z"/>
				<path class="st3" d="M535,710.1l3.6-1.8l6.1,12.5l0.1,0c0.1-1.3,0.5-2.7,1.4-3.8c0.8-1.1,1.9-2.2,3.2-2.8
					c2.7-1.3,7.8-1.8,11.2,5.2l5.8,11.9l-3.6,1.8l-5.6-11.5c-1.6-3.2-4.1-5.4-7.5-3.7c-2.4,1.1-3.4,3.7-3.1,6c0,0.6,0.3,1.2,0.6,1.9
					l5.9,12.1l-3.6,1.8L535,710.1z"/>
				<path class="st3" d="M584,721.2l-1.7-2.3l-0.1,0.1c-0.2,2.1-1.5,4.7-4.2,6.3c-3.9,2.3-7.5,0.7-9.1-2.1c-2.7-4.7,0-9.6,7.4-13.9
					l-0.2-0.4c-0.9-1.6-3-4.2-7-1.9c-1.8,1-3.3,2.7-4.2,4.3l-2.1-1.8c1-2,2.9-4,5.3-5.4c5.9-3.4,9.7-0.2,11.9,3.6l4.2,7.2
					c1,1.7,2,3.3,3,4.4L584,721.2z M577.8,711.6c-3.9,2.1-7.8,5.3-5.6,9.1c1.3,2.3,3.4,2.5,5.2,1.4c2.5-1.5,3.2-4,2.8-5.9
					c-0.1-0.4-0.2-0.9-0.4-1.2L577.8,711.6z"/>
				<path class="st3" d="M590.7,712.2c1.4,0,3.6-0.5,5.3-1.6c2.5-1.6,2.8-3.6,1.8-5.1c-1.1-1.6-2.6-1.9-5.7-1.1
					c-4.1,1-6.9,0.2-8.4-2c-2-3-1.2-7,2.8-9.7c1.9-1.2,3.9-1.8,5.3-1.9l0.8,3c-1,0-2.8,0.3-4.5,1.4c-2,1.3-2.3,3.2-1.4,4.6
					c1,1.5,2.6,1.5,5.6,0.8c4-0.9,6.8-0.4,8.6,2.4c2.2,3.3,1.2,7.2-3.3,10.2c-2,1.3-4.2,2.1-6.1,2.2L590.7,712.2z"/>
				<path class="st3" d="M619.3,697.1l-1.9-2l-0.1,0.1c0.1,2.1-0.9,4.8-3.4,6.7c-3.6,2.7-7.3,1.6-9.3-1c-3.2-4.3-1.2-9.5,5.7-14.7
					l-0.3-0.4c-1.1-1.5-3.5-3.8-7.1-1.1c-1.7,1.2-3,3.1-3.6,4.8l-2.3-1.6c0.8-2.1,2.4-4.3,4.7-6c5.4-4.1,9.6-1.4,12.2,2.2l5,6.7
					c1.2,1.5,2.4,3,3.5,4L619.3,697.1z M612,688.4c-3.6,2.6-7.1,6.2-4.5,9.7c1.6,2.1,3.7,2,5.4,0.8c2.3-1.7,2.7-4.3,2.1-6.2
					c-0.1-0.4-0.3-0.8-0.6-1.2L612,688.4z"/>
				<path class="st3" d="M617.7,678c-1.5-1.7-2.8-3.1-4.2-4.3l2.6-2.4l2.5,2.5l0.1-0.1c-0.5-2.4-0.3-5.3,2.4-7.7
					c2.2-2,5.2-2.2,7.7-0.9l0.1-0.1c-0.3-1.4-0.3-2.7-0.1-3.8c0.3-1.6,1-3,2.6-4.5c2.2-2,6.7-3.5,11.9,2.3l8.8,9.7l-2.9,2.7
					l-8.5-9.3c-2.9-3.2-5.8-4-8.2-1.8c-1.7,1.5-1.9,4-1.1,5.9c0.2,0.5,0.6,1.2,1.1,1.7l9.2,10.2l-2.9,2.7l-9-9.9
					c-2.4-2.6-5.3-3.5-7.5-1.4c-1.9,1.7-1.9,4.4-1,6.4c0.2,0.6,0.6,1.2,1.1,1.7l9,10l-2.9,2.7L617.7,678z"/>
				<path class="st3" d="M640.1,639.8c1,0.9,1.1,2.4,0,3.6c-1,1-2.5,1-3.5,0c-1-1-1.1-2.5-0.1-3.6
					C637.6,638.8,639,638.8,640.1,639.8z M657.6,662.8l-16.1-15.4l2.8-2.9l16.1,15.4L657.6,662.8z"/>
				<path class="st3" d="M640.9,633l2.6-3.1l10.6,9l0.1-0.1c-0.5-1.2-0.6-2.7-0.3-4.1c0.3-1.4,0.8-2.7,1.8-3.9
					c1.9-2.3,6.5-4.7,12.3,0.3l10.1,8.6l-2.6,3.1l-9.7-8.3c-2.7-2.3-5.9-3.3-8.4-0.4c-1.7,2-1.7,4.8-0.5,6.8c0.3,0.5,0.7,1,1.3,1.5
					l10.2,8.7l-2.6,3.1L640.9,633z"/>
				<path class="st3" d="M690.3,623.6l-2.4-1.4l-0.1,0.1c0.7,2,0.5,4.9-1.4,7.4c-2.7,3.6-6.6,3.6-9.2,1.7c-4.3-3.2-3.8-8.8,1.3-15.7
					l-0.4-0.3c-1.5-1.1-4.4-2.7-7.2,1c-1.2,1.7-2,3.8-2.1,5.6l-2.7-0.8c0.1-2.2,1.1-4.8,2.8-7.1c4.1-5.5,8.8-4,12.4-1.4l6.7,5
					c1.6,1.2,3.1,2.2,4.5,2.9L690.3,623.6z M680.8,617.4c-2.7,3.5-5.1,8-1.6,10.6c2.1,1.6,4.1,0.9,5.4-0.8c1.7-2.3,1.3-4.9,0.2-6.5
					c-0.3-0.4-0.6-0.7-0.9-1L680.8,617.4z"/>
				<path class="st3" d="M696.8,614.3l-16-10.6l-1.7,2.6l-2.6-1.7l1.7-2.6l-0.9-0.6c-2.6-1.7-4.6-3.9-5.1-6.4
					c-0.4-2.1,0.2-4.1,1.3-5.7c0.8-1.2,1.7-2,2.4-2.5l2.3,2.2c-0.6,0.3-1.2,0.9-1.8,1.9c-1.9,2.9,0.1,5.3,3,7.2l1,0.7l3-4.5l2.6,1.7
					l-3,4.5l16,10.6L696.8,614.3z"/>
				<path class="st3" d="M710.7,591.9l-2.6-1.1l-0.1,0.1c0.9,2,1,4.8-0.6,7.5c-2.3,3.9-6.2,4.3-9,2.6c-4.6-2.7-4.8-8.3-0.4-15.7
					l-0.4-0.2c-1.6-0.9-4.7-2.2-7,1.8c-1,1.8-1.6,4-1.5,5.8l-2.8-0.6c-0.1-2.2,0.6-4.9,2-7.3c3.4-5.9,8.3-4.9,12.1-2.7l7.2,4.2
					c1.7,1,3.3,1.9,4.8,2.4L710.7,591.9z M700.6,586.7c-2.3,3.8-4.2,8.5-0.4,10.7c2.3,1.3,4.2,0.4,5.3-1.3c1.5-2.5,0.8-5-0.5-6.5
					c-0.3-0.3-0.6-0.6-1-0.9L700.6,586.7z"/>
				<path class="st3" d="M701.6,574.9c-2.1-1-3.8-1.8-5.5-2.5l1.6-3.2l3.4,1.4l0-0.1c-1.4-1.9-2.1-5.2-0.5-8.5
					c1.4-2.8,5.1-6.2,12-2.9l11.9,5.9l-1.8,3.6l-11.5-5.7c-3.2-1.6-6.5-1.7-8.2,1.7c-1.2,2.4-0.4,5.1,1.3,6.7c0.4,0.4,1,0.8,1.6,1.1
					l12,5.9l-1.8,3.6L701.6,574.9z"/>
				<path class="st3" d="M732.5,546.4l-2.7-0.8l-0.1,0.1c1.1,1.8,1.7,4.6,0.5,7.6c-1.7,4.2-5.5,5.1-8.5,3.9c-5-2-5.9-7.6-2.6-15.5
					l-0.4-0.2c-1.7-0.7-5-1.5-6.7,2.7c-0.8,1.9-1,4.2-0.7,6l-2.8-0.2c-0.4-2.2-0.1-4.9,0.9-7.5c2.6-6.3,7.5-6.1,11.6-4.4l7.7,3.1
					c1.8,0.7,3.6,1.4,5.1,1.7L732.5,546.4z M721.7,542.6c-1.8,4.1-2.9,9,1.1,10.6c2.4,1,4.2-0.2,5-2.1c1.1-2.7,0.1-5.1-1.4-6.4
					c-0.3-0.3-0.7-0.5-1.1-0.7L721.7,542.6z"/>
				<path class="st3" d="M711.1,512.2c3.4,2.2,7.5,5.5,9.2,7.3l-0.5,2.6c-2.3-1.7-6.5-4.3-9.5-5.8L711.1,512.2z M713.1,505.7
					c3.4,2.2,7.5,5.5,9.2,7.3l-0.5,2.6c-2.3-1.8-6.5-4.3-9.5-5.8L713.1,505.7z"/>
			</g>
		</g>
		<g>
			<g>
				<polygon class="st3" points="748.5,414.3 762.3,404.3 745.3,404.3 740,388.2 734.8,404.3 717.8,404.3 731.5,414.3 726.3,430.5 
					740,420.5 753.8,430.5 				"/>
				<polygon class="st8" points="748,375.3 759.2,367.1 745.3,367.1 741,353.8 736.7,367.1 722.8,367.1 734,375.3 729.7,388.5 
					741,380.3 752.3,388.5 				"/>
				<polygon class="st8" points="747,451.6 758.2,443.4 744.3,443.4 740,430.1 735.7,443.4 721.8,443.4 733.1,451.6 728.8,464.8 
					740,456.6 751.3,464.8 				"/>
			</g>
			<g>
				<polygon class="st3" points="74.5,414.3 88.2,404.3 71.2,404.3 66,388.2 60.7,404.3 43.7,404.3 57.5,414.3 52.2,430.5 66,420.5 
					79.7,430.5 				"/>
				<polygon class="st8" points="73.9,375.3 85.2,367.1 71.3,367.1 67,353.8 62.7,367.1 48.7,367.1 60,375.3 55.7,388.5 67,380.3 
					78.2,388.5 				"/>
				<polygon class="st8" points="72.9,451.6 84.2,443.4 70.3,443.4 66,430.1 61.7,443.4 47.8,443.4 59,451.6 54.7,464.8 66,456.6 
					77.2,464.8 				"/>
			</g>
		</g>
	</g>
</g>
</svg>
